<?xml version="1.0" standalone="no"?>
<!DOCTYPE svg PUBLIC "-//W3C//DTD SVG 20010904//EN"
 "http://www.w3.org/TR/2001/REC-SVG-20010904/DTD/svg10.dtd">
<svg version="1.0" xmlns="http://www.w3.org/2000/svg"
 width="348.000000pt" height="145.000000pt" viewBox="0 0 348.000000 145.000000"
 preserveAspectRatio="xMidYMid meet">

<g transform="translate(0.000000,145.000000) scale(0.100000,-0.100000)"
fill="#000000" stroke="none">
<path d="M1250 1266 c-80 -23 -118 -44 -165 -87 -86 -80 -85 -72 -85 -455 0
-321 1 -340 21 -380 26 -56 77 -99 159 -138 l65 -31 588 -3 588 -3 29 30 30
29 0 264 c0 261 0 265 -22 286 -43 39 -69 42 -398 42 l-318 0 -3 123 c-4 112
-6 126 -32 169 -34 58 -100 110 -175 139 -71 27 -216 35 -282 15z m275 -114
c135 -64 160 -169 61 -260 -61 -56 -126 -75 -240 -70 -73 3 -101 9 -142 31
-118 60 -149 164 -72 245 91 94 257 117 393 54z m-309 -404 c58 -22 71 -22
617 -26 l557 -3 0 -230 0 -229 -45 0 -45 0 0 54 c0 76 -31 106 -72 69 -13 -12
-18 -30 -18 -70 l0 -53 -50 0 -50 0 0 124 c0 100 -3 128 -16 140 -20 20 -33
20 -56 -1 -16 -14 -18 -33 -18 -140 l0 -123 -50 0 -50 0 0 60 c0 48 -4 61 -19
70 -42 22 -71 -12 -71 -84 l0 -46 -45 0 -45 0 0 122 c0 99 -3 125 -17 140 -20
22 -37 23 -57 2 -13 -12 -16 -40 -16 -140 l0 -124 -50 0 -50 0 0 60 c0 50 -3
61 -21 70 -16 9 -26 8 -45 -5 -21 -13 -24 -23 -24 -70 l0 -55 -48 0 -48 0 4
119 c4 111 3 120 -17 140 -26 26 -36 26 -61 1 -18 -18 -20 -33 -20 -135 0 -63
-2 -115 -4 -115 -28 0 -36 16 -36 72 0 70 -12 98 -43 98 -32 0 -47 -18 -47
-57 0 -41 -15 -42 -35 -3 -12 23 -15 69 -15 230 l0 202 34 -21 c19 -12 60 -31
92 -43z"/>
<path d="M1313 1075 c-50 -35 -46 -123 7 -150 44 -23 78 -19 111 14 37 37 38
79 3 120 -20 24 -34 31 -63 31 -20 0 -46 -7 -58 -15z"/>
</g>
</svg>
